<svg width="18" height="17" viewBox="0 0 18 17" fill="none" xmlns="http://www.w3.org/2000/svg">
<path d="M1.5 3.8996C1.5 3.05952 1.5 2.63949 1.66349 2.31862C1.8073 2.03637 2.03677 1.8069 2.31901 1.66309C2.63988 1.4996 3.05992 1.4996 3.9 1.4996H6.47237C6.84808 1.4996 7.03594 1.4996 7.20646 1.55139C7.35741 1.59724 7.49785 1.6724 7.61972 1.77258C7.75739 1.88574 7.86159 2.04205 8.06997 2.35468L8.93003 3.64493C9.13842 3.95755 9.24261 4.11387 9.38028 4.22703C9.50215 4.32721 9.64259 4.40237 9.79354 4.44822C9.96406 4.5 10.1519 4.5 10.5276 4.5H14.1C14.9401 4.5 15.3601 4.5 15.681 4.66349C15.9632 4.8073 16.1927 5.03678 16.3365 5.31902C16.5 5.63989 16.5 6.05993 16.5 6.9V13.1C16.5 13.9401 16.5 14.3601 16.3365 14.681C16.1927 14.9632 15.9632 15.1927 15.681 15.3365C15.3601 15.5 14.9401 15.5 14.1 15.5H3.9C3.05992 15.5 2.63988 15.5 2.31901 15.3365C2.03677 15.1927 1.8073 14.9632 1.66349 14.681C1.5 14.3601 1.5 13.9401 1.5 13.1V3.8996Z" stroke="#0945B8" stroke-width="2"/>
</svg>
