<svg width="24" height="24" viewBox="0 0 24 24" fill="none" xmlns="http://www.w3.org/2000/svg">
    <path d="M7.9989 6.10352C4.6849 6.10352 1.9989 8.78952 1.9989 12.1035C1.9989 15.4175 4.6849 18.1035 7.9989 18.1035C10.1219 18.1035 12.0269 17.0065 13.1869 15.1045L16.3739 15.1035L17.0929 16.5415C17.2619 16.8795 17.6199 17.1035 17.9989 17.1035H20.9989C21.5509 17.1035 21.9989 16.6555 21.9989 16.1035V10.1035C21.9989 9.55152 21.5509 9.10352 20.9989 9.10352L13.1839 9.09552C12.1009 7.26052 10.1219 6.10352 7.9989 6.10352ZM7.9989 8.10352C9.5919 8.10352 11.0169 9.05953 11.6549 10.5095C11.8149 10.8725 12.1649 11.1035 12.5609 11.1035H19.9989V15.1035H18.6239L17.9049 13.6655C17.7359 13.3275 17.3779 13.1035 16.9989 13.1035H12.5609C12.1649 13.1035 11.8149 13.3345 11.6549 13.6975C11.0169 15.1475 9.5919 16.1035 7.9989 16.1035C5.7899 16.1035 3.9989 14.3125 3.9989 12.1035C3.9989 9.89452 5.7899 8.10352 7.9989 8.10352ZM7.9989 11.1035C7.7429 11.1035 7.47591 11.1895 7.27991 11.3845C6.88991 11.7755 6.88991 12.4315 7.27991 12.8225C7.67091 13.2125 8.3269 13.2125 8.7179 12.8225C9.1079 12.4315 9.1079 11.7755 8.7179 11.3845C8.5219 11.1895 8.2549 11.1035 7.9989 11.1035Z" fill="#C8C5C5"/>
</svg>
