<svg xmlns="http://www.w3.org/2000/svg" width="44" height="44" viewBox="0 0 44 44" fill="none">
<rect x="0.541504" y="0.270813" width="43.4584" height="43.4584" rx="21.7292" fill="url(#paint0_linear_206_412)"/>
<path d="M32.4095 30.486L28.4517 26.5399C29.7287 24.913 30.4215 22.9041 30.419 20.836C30.419 18.9941 29.8728 17.1936 28.8495 15.6622C27.8263 14.1308 26.3718 12.9372 24.6702 12.2323C22.9686 11.5275 21.0961 11.3431 19.2897 11.7024C17.4832 12.0617 15.8239 12.9486 14.5215 14.251C13.2191 15.5534 12.3322 17.2127 11.9729 19.0192C11.6136 20.8256 11.798 22.6981 12.5028 24.3997C13.2077 26.1013 14.4013 27.5557 15.9327 28.579C17.4641 29.6023 19.2646 30.1485 21.1065 30.1485C23.1746 30.151 25.1835 29.4582 26.8104 28.1812L30.7565 32.139C30.8648 32.2481 30.9935 32.3347 31.1354 32.3938C31.2772 32.4529 31.4294 32.4833 31.583 32.4833C31.7367 32.4833 31.8889 32.4529 32.0307 32.3938C32.1726 32.3347 32.3013 32.2481 32.4095 32.139C32.5186 32.0308 32.6052 31.902 32.6643 31.7602C32.7234 31.6183 32.7538 31.4662 32.7538 31.3125C32.7538 31.1589 32.7234 31.0067 32.6643 30.8649C32.6052 30.723 32.5186 30.5943 32.4095 30.486ZM14.1221 20.836C14.1221 19.4546 14.5317 18.1042 15.2992 16.9556C16.0666 15.8071 17.1574 14.9119 18.4337 14.3832C19.7099 13.8546 21.1142 13.7163 22.469 13.9858C23.8239 14.2553 25.0684 14.9205 26.0452 15.8972C27.0219 16.874 27.6871 18.1185 27.9566 19.4734C28.2261 20.8282 28.0878 22.2325 27.5592 23.5088C27.0306 24.785 26.1353 25.8758 24.9868 26.6433C23.8382 27.4107 22.4878 27.8203 21.1065 27.8203C19.2541 27.8203 17.4776 27.0845 16.1678 25.7747C14.8579 24.4648 14.1221 22.6883 14.1221 20.836Z" fill="white"/>
<defs>
<linearGradient id="paint0_linear_206_412" x1="-10.2772" y1="-26.3086" x2="68.4639" y2="37.0572" gradientUnits="userSpaceOnUse">
<stop offset="0.316823" stop-color="#02BCF3"/>
<stop offset="0.784714" stop-color="#DF1BA7"/>
</linearGradient>
</defs>
</svg>