<svg width="37" height="33" viewBox="0 0 37 33" fill="none" xmlns="http://www.w3.org/2000/svg">
    <path fill-rule="evenodd" clip-rule="evenodd" d="M4.25495 3.92155C3.08337 5.09313 3.08337 6.97874 3.08337 10.75V22.25C3.08337 26.0212 3.08337 27.9068 4.25495 29.0784C5.42652 30.25 7.31214 30.25 11.0834 30.25H25.9167C29.6879 30.25 31.5736 30.25 32.7451 29.0784C33.9167 27.9068 33.9167 26.0212 33.9167 22.25V10.75C33.9167 7.46992 33.9167 5.61629 33.1459 4.41825V23.375C32.369 23.375 31.9805 23.375 31.6097 23.3044C31.1475 23.2163 30.7045 23.0475 30.301 22.8055C29.9773 22.6114 29.6874 22.3529 29.1076 21.8357L27.3292 20.2496C26.0624 19.1198 25.429 18.5549 24.6667 18.5549C23.9044 18.5549 23.271 19.1198 22.0042 20.2496L20.4831 21.6063L20.4831 21.6063C19.5738 22.4173 19.1192 22.8227 18.63 22.725C18.1407 22.6272 17.8769 22.0781 17.3492 20.9799L16.1768 18.54C15.1214 16.3437 14.5937 15.2456 13.6152 15.05C12.6367 14.8545 11.7274 15.6654 9.90895 17.2873L9.90894 17.2873L5.39587 21.3125V3.20093C4.94669 3.36991 4.57429 3.60221 4.25495 3.92155Z" fill="#5F6368"/>
    <path d="M4.08337 10.75C4.08337 8.83611 4.0855 7.50129 4.2209 6.49416C4.35244 5.51579 4.59304 4.9977 4.96205 4.62868C5.33107 4.25966 5.84917 4.01907 6.82753 3.88753C7.83467 3.75212 9.16949 3.75 11.0834 3.75H25.9167C27.8306 3.75 29.1654 3.75212 30.1725 3.88753C31.1509 4.01907 31.669 4.25966 32.038 4.62868L32.7279 3.93882L32.038 4.62868C32.407 4.9977 32.6476 5.51579 32.7792 6.49416C32.9146 7.50129 32.9167 8.83611 32.9167 10.75V22.25C32.9167 24.1639 32.9146 25.4987 32.7792 26.5058C32.6476 27.4842 32.407 28.0023 32.038 28.3713C31.669 28.7403 31.1509 28.9809 30.1725 29.1125C29.1654 29.2479 27.8306 29.25 25.9167 29.25H11.0834C9.16949 29.25 7.83467 29.2479 6.82754 29.1125C5.84917 28.9809 5.33107 28.7403 4.96205 28.3713C4.59304 28.0023 4.35244 27.4842 4.2209 26.5058C4.0855 25.4987 4.08337 24.1639 4.08337 22.25V10.75Z" stroke="#5E6368" stroke-width="2"/>
    <ellipse cx="23.125" cy="12.375" rx="3.08333" ry="2.75" fill="#5F6368"/>
</svg>
