<svg width="50" height="41" viewBox="0 0 50 41" fill="none" xmlns="http://www.w3.org/2000/svg">
    <path d="M46.9747 5.86667H44.5504V3.49642C44.5504 2.4845 43.7389 1.65942 42.7389 1.65942C41.741 1.65942 40.9274 2.4845 40.9274 3.49642V5.86667H38.5072C37.5072 5.86667 36.6957 6.69174 36.6957 7.70366C36.6957 8.71559 37.5072 9.54066 38.5072 9.54066H40.9274V11.913C40.9274 12.9249 41.741 13.75 42.7389 13.75C43.7389 13.75 44.5504 12.9249 44.5504 11.913V9.54066H46.9747C47.9726 9.54066 48.7863 8.71559 48.7863 7.70366C48.7863 6.69174 47.9726 5.86667 46.9747 5.86667Z" fill="#787878"/>
    <path d="M46.9747 5.86667H44.5504V3.49642C44.5504 2.4845 43.7389 1.65942 42.7389 1.65942C41.741 1.65942 40.9274 2.4845 40.9274 3.49642V5.86667H38.5072C37.5072 5.86667 36.6957 6.69174 36.6957 7.70366C36.6957 8.71559 37.5072 9.54066 38.5072 9.54066H40.9274V11.913C40.9274 12.9249 41.741 13.75 42.7389 13.75C43.7389 13.75 44.5504 12.9249 44.5504 11.913V9.54066H46.9747C47.9726 9.54066 48.7863 8.71559 48.7863 7.70366C48.7863 6.69174 47.9726 5.86667 46.9747 5.86667" stroke="white" stroke-width="1.36232"/>
    <path fill-rule="evenodd" clip-rule="evenodd" d="M29.6852 17.2893C29.6852 21.8908 26.0169 25.5804 21.442 25.5804C16.8671 25.5804 13.1988 21.8908 13.1988 17.2893C13.1988 12.6861 16.8671 9 21.442 9C26.0169 9 29.6852 12.6861 29.6852 17.2893ZM21.4418 40.3333C14.7224 40.3333 8.985 39.268 8.985 35.007C8.985 30.7441 14.6856 29.64 21.4418 29.64C28.1612 29.64 33.8987 30.7053 33.8987 34.9681C33.8987 39.2292 28.1981 40.3333 21.4418 40.3333ZM33.2076 17.4389C33.2076 19.7846 32.5079 21.9698 31.2805 23.7864C31.1542 23.9733 31.2664 24.2256 31.4891 24.2644C31.796 24.3173 32.1134 24.3472 32.436 24.3561C35.6537 24.4407 38.5417 22.3578 39.3396 19.222C40.5214 14.5641 37.0512 10.3824 32.6324 10.3824C32.152 10.3824 31.6925 10.4335 31.2454 10.5252C31.184 10.5393 31.1192 10.5675 31.0841 10.6222C31.042 10.6892 31.0736 10.7792 31.1156 10.8374C32.443 12.7087 33.2076 14.9909 33.2076 17.4389ZM38.5363 27.6287C40.6984 28.0537 42.1205 28.9215 42.7096 30.1825C43.2076 31.2178 43.2076 32.4188 42.7096 33.4524C41.8084 35.4083 38.9028 36.0362 37.7736 36.1984C37.5403 36.2337 37.3527 36.0309 37.3773 35.7963C37.9542 30.3765 33.3653 27.8068 32.1781 27.216C32.1273 27.1895 32.1168 27.1489 32.122 27.1243C32.1255 27.1066 32.1466 27.0784 32.1852 27.0731C34.754 27.0255 37.5158 27.3782 38.5363 27.6287ZM10.6475 24.3559C10.9701 24.3471 11.2857 24.3188 11.5944 24.2642C11.8171 24.2254 11.9293 23.9732 11.803 23.7862C10.5756 21.9696 9.87593 19.7844 9.87593 17.4387C9.87593 14.9907 10.6405 12.7085 11.9679 10.8372C12.0099 10.779 12.0397 10.6891 11.9994 10.622C11.9643 10.5691 11.8977 10.5391 11.8381 10.525C11.3892 10.4333 10.9298 10.3822 10.4493 10.3822C6.03051 10.3822 2.56034 14.5639 3.74395 19.2218C4.54179 22.3576 7.4298 24.4405 10.6475 24.3559ZM10.9607 27.1232C10.9659 27.1497 10.9554 27.1885 10.9063 27.2167C9.71744 27.8076 5.12854 30.3772 5.70544 35.7953C5.72999 36.0316 5.54412 36.2327 5.3109 36.1992C4.18165 36.0369 1.27611 35.409 0.37481 33.4531C-0.124937 32.4178 -0.124937 31.2185 0.37481 30.1832C0.963985 28.9222 2.38432 28.0545 4.54638 27.6277C5.56867 27.379 8.32867 27.0262 10.8993 27.0739C10.9379 27.0792 10.9572 27.1074 10.9607 27.1232Z" fill="#787878"/>
</svg>
