<svg width="29" height="33" viewBox="0 0 29 33" fill="none" xmlns="http://www.w3.org/2000/svg">
<rect x="4.4032" y="8.92529" width="19.5518" height="13.5796" rx="6.78981" stroke="#00C5FF" stroke-width="4"/>
<path d="M3.20965 15.4487C3.20965 16.7727 3.35747 18.1123 2.16292 18.1123C0.968374 18.1123 0 17.039 0 15.7151C0 14.3911 0.968374 13.3179 2.16292 13.3179C3.35747 13.3179 3.20965 14.1248 3.20965 15.4487Z" fill="#00C5FF"/>
<path d="M25.4803 15.9814C25.4803 14.6575 25.3325 13.3179 26.527 13.3179C27.7216 13.3179 28.6899 14.3911 28.6899 15.7151C28.6899 17.039 27.7216 18.1123 26.527 18.1123C25.3325 18.1123 25.4803 17.3054 25.4803 15.9814Z" fill="#00C5FF"/>
<path d="M14.4194 8.35177C13.2249 8.35177 12.0162 8.51561 12.0162 7.19166C12.0162 5.86771 12.9846 4.79443 14.1791 4.79443C15.3737 4.79443 16.342 5.86771 16.342 7.19166C16.342 8.51561 15.614 8.35177 14.4194 8.35177Z" fill="#00C5FF"/>
<ellipse cx="14.1791" cy="1.86451" rx="1.68227" ry="1.86451" fill="#00C5FF"/>
<ellipse cx="14.1791" cy="1.86451" rx="1.68227" ry="1.86451" fill="#00C5FF"/>
<ellipse cx="14.1791" cy="1.86451" rx="1.68227" ry="1.86451" fill="#00C5FF"/>
<rect x="13.4581" y="3.19629" width="1.44195" height="2.13086" fill="#00C5FF"/>
<path d="M12.7372 31.1639L14.1792 24.505L21.9166 23.2693L12.7372 31.1639Z" fill="#00C5FF"/>
<path d="M12.0162 17.5796C12.0162 17.8594 12.0721 18.1365 12.1808 18.395C12.2895 18.6536 12.4489 18.8885 12.6497 19.0863C12.8505 19.2842 13.089 19.4412 13.3514 19.5482C13.6138 19.6553 13.8951 19.7104 14.1791 19.7104C14.4632 19.7104 14.7444 19.6553 15.0068 19.5482C15.2693 19.4412 15.5077 19.2842 15.7085 19.0863C15.9094 18.8885 16.0687 18.6536 16.1774 18.395C16.2861 18.1365 16.342 17.8594 16.342 17.5796L14.1791 17.5796H12.0162Z" fill="#00C5FF"/>
<ellipse cx="10.0936" cy="14.3834" rx="1.44195" ry="1.59815" fill="#00C5FF"/>
<ellipse cx="10.0936" cy="14.3834" rx="1.44195" ry="1.59815" fill="#00C5FF"/>
<ellipse cx="18.2646" cy="14.3834" rx="1.44195" ry="1.59815" fill="#00C5FF"/>
<ellipse cx="18.2646" cy="14.3834" rx="1.44195" ry="1.59815" fill="#00C5FF"/>
</svg>
