<svg width="30" height="30" viewBox="0 0 30 30" fill="none" xmlns="http://www.w3.org/2000/svg">
<path fill-rule="evenodd" clip-rule="evenodd" d="M16.294 8.70592L18.75 6.24994L18.75 6.24994C19.7671 5.23289 20.2756 4.72436 20.8872 4.61154C21.1271 4.56731 21.373 4.56731 21.6128 4.61154C22.2244 4.72436 22.733 5.23288 23.75 6.24993L23.75 6.24994C24.7671 7.267 25.2756 7.77552 25.3884 8.38717C25.4326 8.627 25.4326 8.87289 25.3884 9.11271C25.2756 9.72436 24.7671 10.2329 23.75 11.2499L21.3218 13.6782C19.2384 12.4797 17.508 10.7623 16.294 8.70592ZM14.8397 10.1603L5.8564 19.1436C5.43134 19.5686 5.21881 19.7812 5.07907 20.0423C4.93934 20.3033 4.88039 20.5981 4.7625 21.1875L3.8971 25.5145C3.83058 25.8471 3.79732 26.0134 3.89193 26.108C3.98654 26.2026 4.15284 26.1694 4.48545 26.1029L8.81243 25.2375C9.40189 25.1196 9.69661 25.0606 9.95771 24.9209C10.2188 24.7812 10.4313 24.5686 10.8564 24.1436L19.8637 15.1363C17.8311 13.8735 16.1151 12.1693 14.8397 10.1603Z" fill="#00C5FF"/>
</svg>
