<svg width="46" height="46" viewBox="0 0 46 46" fill="none" xmlns="http://www.w3.org/2000/svg">
<path d="M22.2181 6.71027C22.0962 6.58508 21.9504 6.48558 21.7895 6.41764C21.6285 6.3497 21.4555 6.3147 21.2808 6.3147C21.1061 6.3147 20.9331 6.3497 20.7721 6.41764C20.6112 6.48558 20.4654 6.58508 20.3436 6.71027C20.0937 6.96687 19.9538 7.3109 19.9538 7.66908C19.9538 8.02726 20.0937 8.37129 20.3436 8.62789L34.3534 22.9971L20.3436 37.3693C20.2174 37.4984 20.118 37.6511 20.0509 37.8186C19.9838 37.9862 19.9504 38.1653 19.9525 38.3458C19.9546 38.5263 19.9923 38.7045 20.0633 38.8705C20.1344 39.0364 20.2374 39.1867 20.3666 39.3128C20.4896 39.433 20.6351 39.5277 20.7947 39.5916C20.9544 39.6556 21.1251 39.6874 21.2971 39.6852C21.469 39.6831 21.6389 39.6471 21.7969 39.5792C21.955 39.5113 22.0981 39.413 22.2181 39.2898L37.1163 24.0005C37.378 23.7321 37.5244 23.372 37.5244 22.9971C37.5244 22.6223 37.378 22.2622 37.1163 21.9938L22.2181 6.71027ZM10.7181 6.71027C10.5962 6.58508 10.4504 6.48558 10.2895 6.41764C10.1285 6.3497 9.95553 6.3147 9.7808 6.3147C9.60608 6.3147 9.43312 6.3497 9.27215 6.41764C9.11117 6.48558 8.96544 6.58508 8.84355 6.71027C8.59365 6.96687 8.45381 7.3109 8.45381 7.66908C8.45381 8.02726 8.59365 8.37129 8.84355 8.62789L22.8534 22.9971L8.84355 37.3693C8.71744 37.4984 8.61799 37.6511 8.5509 37.8186C8.4838 37.9862 8.45036 38.1653 8.4525 38.3458C8.45463 38.5263 8.4923 38.7045 8.56334 38.8705C8.63439 39.0364 8.73742 39.1867 8.86655 39.3128C8.98956 39.433 9.13506 39.5277 9.29473 39.5916C9.4544 39.6556 9.6251 39.6874 9.79707 39.6852C9.96904 39.6831 10.1389 39.6471 10.2969 39.5792C10.455 39.5113 10.5981 39.413 10.7181 39.2898L25.6163 24.0005C25.878 23.7321 26.0244 23.372 26.0244 22.9971C26.0244 22.6223 25.878 22.2622 25.6163 21.9938L10.7181 6.71027Z" fill="#556489"/>
</svg>
