<svg width="40" height="37" viewBox="0 0 40 37" fill="none" xmlns="http://www.w3.org/2000/svg">
    <path fill-rule="evenodd" clip-rule="evenodd" d="M4.50489 4.25496C3.33331 5.42653 3.33331 7.31215 3.33331 11.0834V25.9167C3.33331 29.688 3.33331 31.5736 4.50489 32.7451C5.67646 33.9167 7.56208 33.9167 11.3333 33.9167H28.6666C32.4379 33.9167 34.3235 33.9167 35.4951 32.7451C36.6666 31.5736 36.6666 29.688 36.6666 25.9167V11.0834C36.6666 7.71697 36.6666 5.85308 35.8333 4.65838V26.2084C34.913 26.2084 34.4528 26.2084 34.017 26.1098C33.6242 26.0209 33.247 25.8732 32.8983 25.6717C32.5115 25.4482 32.1737 25.1357 31.4982 24.5109L31.4981 24.5108L31.4981 24.5108L29.3828 22.5542C28.0941 21.3622 27.4498 20.7661 26.6666 20.7661C25.8835 20.7661 25.2391 21.3622 23.9505 22.5542L22.0174 24.3422C21.0958 25.1947 20.635 25.621 20.1357 25.5222C19.6363 25.4235 19.3724 24.8539 18.8447 23.7148L17.3106 20.4038C16.2551 18.1256 15.7273 16.9866 14.7286 16.7891C13.7299 16.5916 12.8083 17.444 10.9651 19.149L5.83331 23.8959V3.46887C5.29886 3.64176 4.86764 3.8922 4.50489 4.25496Z" fill="#5F6368"/>
    <path d="M4.33331 11.0834C4.33331 9.16949 4.33544 7.83467 4.47084 6.82754C4.60238 5.84917 4.84298 5.33107 5.21199 4.96205C5.58101 4.59304 6.09911 4.35244 7.07747 4.2209C8.08461 4.0855 9.41943 4.08337 11.3333 4.08337H28.6666C30.5805 4.08337 31.9154 4.0855 32.9225 4.2209C33.9009 4.35244 34.419 4.59304 34.788 4.96205C35.157 5.33107 35.3976 5.84917 35.5291 6.82753C35.6645 7.83467 35.6666 9.16949 35.6666 11.0834V25.9167C35.6666 27.8306 35.6645 29.1654 35.5291 30.1725C35.3976 31.1509 35.157 31.669 34.788 32.038C34.419 32.407 33.9009 32.6476 32.9225 32.7792C31.9154 32.9146 30.5805 32.9167 28.6666 32.9167H11.3333C9.41943 32.9167 8.08461 32.9146 7.07747 32.7792C6.09911 32.6476 5.58101 32.407 5.21199 32.038L4.52213 32.7279L5.21199 32.038C4.84298 31.669 4.60238 31.1509 4.47084 30.1725C4.33544 29.1654 4.33331 27.8306 4.33331 25.9167V11.0834Z" stroke="#5E6368" stroke-width="2"/>
    <ellipse cx="25" cy="13.875" rx="3.33333" ry="3.08333" fill="#5F6368"/>
</svg>
