<svg width="35" height="35" viewBox="0 0 35 35" fill="none" xmlns="http://www.w3.org/2000/svg">
    <path d="M3.98572 17.1675H1.06C1.02686 17.1675 1 17.1944 1 17.2275V21.118V25.0685V28.9589C1 28.9921 1.02686 29.0189 1.06 29.0189H3.98572M3.98572 17.1675H6.91144C6.94458 17.1675 6.97144 17.1944 6.97144 17.2275V21.118V25.0685V28.9589C6.97144 28.9921 6.94458 29.0189 6.91144 29.0189H3.98572M3.98572 17.1675V12.1865M3.98572 34V29.0189" stroke="#5F6368" stroke-width="2" stroke-linecap="round"/>
    <path d="M31.0143 17.1675H28.0886C28.0554 17.1675 28.0286 17.1944 28.0286 17.2275V21.118V25.0685V28.9589C28.0286 28.9921 28.0554 29.0189 28.0886 29.0189H31.0143M31.0143 17.1675H33.94C33.9731 17.1675 34 17.1944 34 17.2275V21.118V25.0685V28.9589C34 28.9921 33.9731 29.0189 33.94 29.0189H31.0143M31.0143 17.1675V12.1865M31.0143 34V29.0189" stroke="#5F6368" stroke-width="2" stroke-linecap="round"/>
    <path d="M17.5 6.04488H14.5743C14.5411 6.04488 14.5143 6.07175 14.5143 6.10488V10.046V14.0471V17.9882C14.5143 18.0214 14.5411 18.0482 14.5743 18.0482H17.5M17.5 6.04488H20.4257C20.4589 6.04488 20.4857 6.07175 20.4857 6.10488V10.046V14.0471V17.9882C20.4857 18.0214 20.4589 18.0482 20.4257 18.0482H17.5M17.5 6.04488V1M17.5 23.0931V18.0482" stroke="#01BFF6" stroke-width="2" stroke-linecap="round"/>
</svg>
