<svg width="43" height="46" viewBox="0 0 43 46" fill="none" xmlns="http://www.w3.org/2000/svg">
    <path d="M37.625 30.6667C37.625 26.0918 35.9261 21.7042 32.9021 18.4692C29.8781 15.2342 25.7766 13.4167 21.5 13.4167C17.2234 13.4167 13.1219 15.2342 10.0979 18.4692C7.07388 21.7042 5.375 26.0918 5.375 30.6667L13.6649 30.6667C13.6649 28.4438 14.4904 26.3118 15.9597 24.74C17.4291 23.1681 19.422 22.285 21.5 22.285C23.578 22.285 25.5709 23.1681 27.0403 24.74C28.5096 26.3118 29.3351 28.4438 29.3351 30.6667H37.625Z" stroke="#5F6368" stroke-width="2"/>
    <path d="M21.5 13.4167L21.5 23.0001" stroke="#5F6368" stroke-width="2"/>
    <path d="M32.9021 18.4685L27.5271 24.2185" stroke="#5F6368" stroke-width="2"/>
    <path d="M10.0979 18.4685L16.1253 24.9164" stroke="#5F6368" stroke-width="2"/>
</svg>
