<svg width="35" height="35" viewBox="0 0 35 35" fill="none" xmlns="http://www.w3.org/2000/svg">
    <path d="M25.2087 12.2917C23.8533 10.9493 22.0603 10.0479 20.0627 9.82061C19.514 9.75817 19.0647 9.31648 19.0647 8.7642V4.5603C19.0647 4.00802 19.5131 3.5568 20.0642 3.59322C23.6808 3.83219 26.9456 5.35853 29.4045 7.71823M25.2087 12.2917C26.8064 13.8741 27.7961 16.0693 27.7961 18.4956C27.7961 23.3178 23.8869 27.227 19.0647 27.227C14.5801 27.227 10.8851 23.846 10.3897 19.4939C10.3273 18.9452 9.88557 18.4956 9.33329 18.4956H5.1294C4.57711 18.4956 4.12592 18.9447 4.16236 19.4958C4.67693 27.278 11.1523 33.4309 19.0647 33.4309C27.3132 33.4309 34 26.7441 34 18.4956C34 14.26 32.2369 10.4363 29.4045 7.71823M25.2087 12.2917L29.4045 7.71823" stroke="#5F6368" stroke-width="2"/>
    <path d="M13.5172 2C13.5172 1.44772 13.0679 0.995839 12.5173 1.03935C6.40161 1.5227 1.5227 6.40162 1.03935 12.5173C0.995839 13.0679 1.44772 13.5172 2 13.5172H5.19945C5.75174 13.5172 6.19228 13.067 6.26686 12.5198C6.70891 9.27627 9.27627 6.70891 12.5198 6.26686C13.067 6.19228 13.5172 5.75174 13.5172 5.19945V2Z" stroke="#01BFF6" stroke-width="2"/>
</svg>
