<svg width="36" height="36" viewBox="0 0 36 36" fill="none" xmlns="http://www.w3.org/2000/svg">
<path fill-rule="evenodd" clip-rule="evenodd" d="M3 17.9998C3 9.71555 9.71573 2.99982 18 2.99982C26.2843 2.99982 33 9.71555 33 17.9998C33 26.2841 26.2843 32.9998 18 32.9998C9.71573 32.9998 3 26.2841 3 17.9998ZM23.5607 16.0607C24.1464 15.4749 24.1464 14.5251 23.5607 13.9393C22.9749 13.3536 22.0251 13.3536 21.4393 13.9393L16.5 18.8787L14.5607 16.9393C13.9749 16.3536 13.0251 16.3536 12.4393 16.9393C11.8536 17.5251 11.8536 18.4749 12.4393 19.0607L15.4393 22.0607C16.0251 22.6464 16.9749 22.6464 17.5607 22.0607L23.5607 16.0607Z" fill="#0E9C13"/>
</svg>
