<svg width="140" height="155" viewBox="0 0 140 155" fill="none" xmlns="http://www.w3.org/2000/svg">
<rect y="76" width="140" height="59" rx="5" fill="#E94815"/>
<path d="M35.4875 121V92.2H47.6475C47.9275 92.2 48.3008 92.2133 48.7675 92.24C49.2475 92.2533 49.6742 92.2933 50.0475 92.36C51.7675 92.6267 53.1742 93.1933 54.2675 94.06C55.3742 94.9267 56.1875 96.02 56.7075 97.34C57.2275 98.6467 57.4875 100.107 57.4875 101.72C57.4875 103.333 57.2208 104.8 56.6875 106.12C56.1675 107.427 55.3542 108.513 54.2475 109.38C53.1542 110.247 51.7542 110.813 50.0475 111.08C49.6742 111.133 49.2475 111.173 48.7675 111.2C48.2875 111.227 47.9142 111.24 47.6475 111.24H40.9275V121H35.4875ZM40.9275 106.16H47.4075C47.6875 106.16 47.9942 106.147 48.3275 106.12C48.6608 106.093 48.9675 106.04 49.2475 105.96C49.9808 105.76 50.5475 105.427 50.9475 104.96C51.3475 104.48 51.6208 103.953 51.7675 103.38C51.9275 102.793 52.0075 102.24 52.0075 101.72C52.0075 101.2 51.9275 100.653 51.7675 100.08C51.6208 99.4933 51.3475 98.9667 50.9475 98.5C50.5475 98.02 49.9808 97.68 49.2475 97.48C48.9675 97.4 48.6608 97.3467 48.3275 97.32C47.9942 97.2933 47.6875 97.28 47.4075 97.28H40.9275V106.16ZM61.5031 121V92.2H70.8231C71.0498 92.2 71.5165 92.2067 72.2231 92.22C72.9298 92.2333 73.6098 92.28 74.2631 92.36C76.5831 92.64 78.5498 93.4467 80.1631 94.78C81.7765 96.1133 83.0031 97.8067 83.8431 99.86C84.6831 101.913 85.1031 104.16 85.1031 106.6C85.1031 109.04 84.6831 111.287 83.8431 113.34C83.0031 115.393 81.7765 117.087 80.1631 118.42C78.5498 119.753 76.5831 120.56 74.2631 120.84C73.6098 120.92 72.9298 120.967 72.2231 120.98C71.5165 120.993 71.0498 121 70.8231 121H61.5031ZM67.0231 115.88H70.8231C71.1831 115.88 71.6698 115.873 72.2831 115.86C72.8965 115.833 73.4498 115.773 73.9431 115.68C75.1965 115.427 76.2165 114.84 77.0031 113.92C77.8031 113 78.3898 111.893 78.7631 110.6C79.1498 109.307 79.3431 107.973 79.3431 106.6C79.3431 105.16 79.1431 103.793 78.7431 102.5C78.3565 101.207 77.7631 100.113 76.9631 99.22C76.1631 98.3267 75.1565 97.76 73.9431 97.52C73.4498 97.4133 72.8965 97.3533 72.2831 97.34C71.6698 97.3267 71.1831 97.32 70.8231 97.32H67.0231V115.88ZM89.9016 121V92.2H107.502V97.64H95.3416V103.88H105.102V109.32H95.3416V121H89.9016Z" fill="white"/>
<rect x="11.5" y="2.5" width="118" height="150" stroke="#E94815" stroke-width="5" stroke-linejoin="round"/>
<path d="M29 21H112" stroke="#E94815" stroke-width="6" stroke-linecap="round"/>
<path d="M29 59H112" stroke="#E94815" stroke-width="6" stroke-linecap="round"/>
<path d="M29 40H112" stroke="#E94815" stroke-width="6" stroke-linecap="round"/>
</svg>
