<svg width="140" height="155" viewBox="0 0 140 155" fill="none" xmlns="http://www.w3.org/2000/svg">
<rect y="76" width="140" height="59" rx="5" fill="#1663D6"/>
<path d="M16.1906 121V92.2H25.5106C25.7373 92.2 26.204 92.2067 26.9106 92.22C27.6173 92.2333 28.2973 92.28 28.9506 92.36C31.2706 92.64 33.2373 93.4467 34.8506 94.78C36.464 96.1133 37.6906 97.8067 38.5306 99.86C39.3706 101.913 39.7906 104.16 39.7906 106.6C39.7906 109.04 39.3706 111.287 38.5306 113.34C37.6906 115.393 36.464 117.087 34.8506 118.42C33.2373 119.753 31.2706 120.56 28.9506 120.84C28.2973 120.92 27.6173 120.967 26.9106 120.98C26.204 120.993 25.7373 121 25.5106 121H16.1906ZM21.7106 115.88H25.5106C25.8706 115.88 26.3573 115.873 26.9706 115.86C27.584 115.833 28.1373 115.773 28.6306 115.68C29.884 115.427 30.904 114.84 31.6906 113.92C32.4906 113 33.0773 111.893 33.4506 110.6C33.8373 109.307 34.0306 107.973 34.0306 106.6C34.0306 105.16 33.8306 103.793 33.4306 102.5C33.044 101.207 32.4506 100.113 31.6506 99.22C30.8506 98.3267 29.844 97.76 28.6306 97.52C28.1373 97.4133 27.584 97.3533 26.9706 97.34C26.3573 97.3267 25.8706 97.32 25.5106 97.32H21.7106V115.88ZM56.9491 121.6C54.0691 121.6 51.5824 120.973 49.4891 119.72C47.4091 118.467 45.8024 116.713 44.6691 114.46C43.5491 112.207 42.9891 109.587 42.9891 106.6C42.9891 103.613 43.5491 100.993 44.6691 98.74C45.8024 96.4867 47.4091 94.7333 49.4891 93.48C51.5824 92.2267 54.0691 91.6 56.9491 91.6C59.8291 91.6 62.3091 92.2267 64.3891 93.48C66.4824 94.7333 68.0891 96.4867 69.2091 98.74C70.3424 100.993 70.9091 103.613 70.9091 106.6C70.9091 109.587 70.3424 112.207 69.2091 114.46C68.0891 116.713 66.4824 118.467 64.3891 119.72C62.3091 120.973 59.8291 121.6 56.9491 121.6ZM56.9491 116.48C58.7757 116.507 60.2957 116.113 61.5091 115.3C62.7224 114.487 63.6291 113.333 64.2291 111.84C64.8424 110.347 65.1491 108.6 65.1491 106.6C65.1491 104.6 64.8424 102.867 64.2291 101.4C63.6291 99.9333 62.7224 98.7933 61.5091 97.98C60.2957 97.1667 58.7757 96.7467 56.9491 96.72C55.1224 96.6933 53.6024 97.0867 52.3891 97.9C51.1757 98.7133 50.2624 99.8667 49.6491 101.36C49.0491 102.853 48.7491 104.6 48.7491 106.6C48.7491 108.6 49.0491 110.333 49.6491 111.8C50.2624 113.267 51.1757 114.407 52.3891 115.22C53.6024 116.033 55.1224 116.453 56.9491 116.48ZM87.2616 121.6C84.3816 121.6 81.8949 120.973 79.8016 119.72C77.7216 118.467 76.1149 116.713 74.9816 114.46C73.8616 112.207 73.3016 109.587 73.3016 106.6C73.3016 103.613 73.8616 100.993 74.9816 98.74C76.1149 96.4867 77.7216 94.7333 79.8016 93.48C81.8949 92.2267 84.3816 91.6 87.2616 91.6C90.5682 91.6 93.3416 92.42 95.5816 94.06C97.8349 95.7 99.4216 97.92 100.342 100.72L94.8616 102.24C94.3282 100.493 93.4282 99.14 92.1616 98.18C90.8949 97.2067 89.2616 96.72 87.2616 96.72C85.4349 96.72 83.9082 97.1267 82.6816 97.94C81.4682 98.7533 80.5549 99.9 79.9416 101.38C79.3282 102.86 79.0216 104.6 79.0216 106.6C79.0216 108.6 79.3282 110.34 79.9416 111.82C80.5549 113.3 81.4682 114.447 82.6816 115.26C83.9082 116.073 85.4349 116.48 87.2616 116.48C89.2616 116.48 90.8949 115.993 92.1616 115.02C93.4282 114.047 94.3282 112.693 94.8616 110.96L100.342 112.48C99.4216 115.28 97.8349 117.5 95.5816 119.14C93.3416 120.78 90.5682 121.6 87.2616 121.6ZM101.134 121L110.814 106.44L101.414 92.2H108.094L114.214 101.8L120.254 92.2H126.974L117.574 106.44L127.214 121H120.534L114.214 111.08L107.854 121H101.134Z" fill="white"/>
<rect x="11.5" y="2.5" width="118" height="150" stroke="#1663D6" stroke-width="5" stroke-linejoin="round"/>
<path d="M29 21H112" stroke="#1663D6" stroke-width="6" stroke-linecap="round"/>
<path d="M29 59H112" stroke="#1663D6" stroke-width="6" stroke-linecap="round"/>
<path d="M29 40H112" stroke="#1663D6" stroke-width="6" stroke-linecap="round"/>
</svg>
