<svg width="34" height="33" viewBox="0 0 34 33" fill="none" xmlns="http://www.w3.org/2000/svg">
<rect width="34" height="33" rx="5" fill="#383785"/>
<path d="M9.09073 21.18C8.45873 21.18 7.88873 21.07 7.38073 20.85C6.87673 20.63 6.46073 20.316 6.13273 19.908C5.80873 19.496 5.60273 19.008 5.51473 18.444L7.01473 18.216C7.14273 18.728 7.40473 19.124 7.80073 19.404C8.20073 19.684 8.66073 19.824 9.18073 19.824C9.48873 19.824 9.77873 19.776 10.0507 19.68C10.3227 19.584 10.5427 19.444 10.7107 19.26C10.8827 19.076 10.9687 18.85 10.9687 18.582C10.9687 18.462 10.9487 18.352 10.9087 18.252C10.8687 18.148 10.8087 18.056 10.7287 17.976C10.6527 17.896 10.5527 17.824 10.4287 17.76C10.3087 17.692 10.1687 17.634 10.0087 17.586L7.77673 16.926C7.58473 16.87 7.37673 16.796 7.15273 16.704C6.93273 16.608 6.72273 16.478 6.52273 16.314C6.32673 16.146 6.16473 15.934 6.03673 15.678C5.91273 15.418 5.85073 15.098 5.85073 14.718C5.85073 14.162 5.99073 13.696 6.27073 13.32C6.55473 12.94 6.93473 12.656 7.41073 12.468C7.89073 12.28 8.42273 12.188 9.00673 12.192C9.59873 12.196 10.1267 12.298 10.5907 12.498C11.0547 12.694 11.4427 12.98 11.7547 13.356C12.0667 13.732 12.2867 14.186 12.4147 14.718L10.8607 14.988C10.7967 14.684 10.6727 14.426 10.4887 14.214C10.3087 13.998 10.0867 13.834 9.82273 13.722C9.56273 13.61 9.28473 13.55 8.98873 13.542C8.70073 13.538 8.43273 13.582 8.18473 13.674C7.94073 13.762 7.74273 13.89 7.59073 14.058C7.44273 14.226 7.36873 14.422 7.36873 14.646C7.36873 14.858 7.43273 15.032 7.56073 15.168C7.68873 15.3 7.84673 15.406 8.03473 15.486C8.22673 15.562 8.42073 15.626 8.61673 15.678L10.1647 16.11C10.3767 16.166 10.6147 16.242 10.8787 16.338C11.1427 16.434 11.3967 16.568 11.6407 16.74C11.8847 16.912 12.0847 17.138 12.2407 17.418C12.4007 17.698 12.4807 18.054 12.4807 18.486C12.4807 18.934 12.3867 19.328 12.1987 19.668C12.0147 20.004 11.7647 20.284 11.4487 20.508C11.1327 20.732 10.7707 20.9 10.3627 21.012C9.95873 21.124 9.53473 21.18 9.09073 21.18ZM15.4891 21L12.7651 12.36H14.2531L16.5331 19.596L18.8431 12.36H20.3311L17.6071 21H15.4891ZM24.5622 21.18C24.0022 21.18 23.4762 21.082 22.9842 20.886C22.4962 20.686 22.0662 20.394 21.6942 20.01C21.3262 19.626 21.0382 19.156 20.8302 18.6C20.6222 18.04 20.5182 17.4 20.5182 16.68C20.5182 15.736 20.6942 14.93 21.0462 14.262C21.3982 13.59 21.8802 13.076 22.4922 12.72C23.1042 12.36 23.7942 12.18 24.5622 12.18C25.6262 12.18 26.4682 12.428 27.0882 12.924C27.7122 13.416 28.1342 14.108 28.3542 15L26.8782 15.234C26.7142 14.722 26.4462 14.314 26.0742 14.01C25.7022 13.702 25.2282 13.548 24.6522 13.548C24.0722 13.54 23.5902 13.666 23.2062 13.926C22.8222 14.186 22.5322 14.552 22.3362 15.024C22.1442 15.496 22.0482 16.048 22.0482 16.68C22.0482 17.312 22.1442 17.862 22.3362 18.33C22.5282 18.794 22.8162 19.156 23.2002 19.416C23.5882 19.676 24.0722 19.81 24.6522 19.818C25.0882 19.822 25.4702 19.744 25.7982 19.584C26.1262 19.42 26.3942 19.174 26.6022 18.846C26.8102 18.514 26.9502 18.1 27.0222 17.604H25.4982V16.47H28.5582C28.5662 16.534 28.5722 16.628 28.5762 16.752C28.5802 16.876 28.5822 16.95 28.5822 16.974C28.5822 17.79 28.4202 18.516 28.0962 19.152C27.7762 19.784 27.3162 20.28 26.7162 20.64C26.1162 21 25.3982 21.18 24.5622 21.18Z" fill="white"/>
</svg>
