<svg width="28" height="28" viewBox="0 0 28 28" fill="none" xmlns="http://www.w3.org/2000/svg">
<circle cx="14" cy="9.33325" r="2.75" stroke="#5F6368" stroke-width="1.5" stroke-linecap="round"/>
<path d="M16.207 7.66659C16.4213 7.29547 16.7408 6.99623 17.1251 6.80669C17.5095 6.61716 17.9414 6.54585 18.3662 6.60179C18.7911 6.65772 19.1898 6.83839 19.512 7.12093C19.8342 7.40348 20.0653 7.77522 20.1763 8.18914C20.2872 8.60307 20.2728 9.04059 20.1351 9.44637C19.9974 9.85216 19.7424 10.208 19.4024 10.4689C19.0624 10.7297 18.6527 10.8839 18.2251 10.9119C17.7975 10.94 17.3712 10.8406 17.0001 10.6263" stroke="#5F6368" stroke-width="1.5"/>
<path d="M11.793 7.66659C11.5787 7.29547 11.2592 6.99623 10.8749 6.80669C10.4905 6.61716 10.0586 6.54585 9.63378 6.60179C9.20892 6.65772 8.81019 6.83839 8.488 7.12093C8.16582 7.40348 7.93466 7.77522 7.82375 8.18914C7.71284 8.60307 7.72716 9.04059 7.8649 9.44637C8.00265 9.85216 8.25763 10.208 8.5976 10.4689C8.93758 10.7297 9.34727 10.8839 9.77488 10.9119C10.2025 10.94 10.6288 10.8406 10.9999 10.6263" stroke="#5F6368" stroke-width="1.5"/>
<path d="M13.9999 14.5833C18.896 14.5833 20.0563 18.6587 20.3312 20.5903C20.409 21.1371 19.9689 21.5833 19.4166 21.5833H8.58325C8.03097 21.5833 7.59081 21.1371 7.66864 20.5903C7.94358 18.6587 9.10382 14.5833 13.9999 14.5833Z" stroke="#5F6368" stroke-width="2" stroke-linecap="round"/>
<path d="M22.5558 18.1641L23.5297 17.937V17.937L22.5558 18.1641ZM15.2683 14.6836L14.5298 14.0094L13.289 15.3684L15.1044 15.6701L15.2683 14.6836ZM20.0449 19.2501L19.0843 19.528L19.2932 20.2501H20.0449V19.2501ZM18.0834 14.4167C19.1529 14.4167 19.8997 14.9468 20.4681 15.7401C21.0564 16.5611 21.3977 17.6012 21.582 18.3913L23.5297 17.937C23.3204 17.0396 22.9041 15.706 22.0939 14.5752C21.2638 13.4167 19.9712 12.4167 18.0834 12.4167V14.4167ZM16.0068 15.3579C16.5258 14.7894 17.1825 14.4167 18.0834 14.4167V12.4167C16.5266 12.4167 15.3595 13.1006 14.5298 14.0094L16.0068 15.3579ZM15.1044 15.6701C17.5594 16.0781 18.6123 17.8967 19.0843 19.528L21.0055 18.9722C20.4354 17.0017 18.9861 14.2877 15.4322 13.6972L15.1044 15.6701ZM21.645 18.2501H20.0449V20.2501H21.645V18.2501ZM21.582 18.3913C21.5792 18.3794 21.5776 18.3566 21.5844 18.3297C21.5909 18.3043 21.6022 18.2855 21.6126 18.2733C21.633 18.2494 21.65 18.2501 21.645 18.2501V20.2501C22.8011 20.2501 23.8279 19.2156 23.5297 17.937L21.582 18.3913Z" fill="#5F6368"/>
<path d="M12.7317 14.6836L12.8956 15.6701L14.711 15.3684L13.4702 14.0094L12.7317 14.6836ZM5.44417 18.1641L6.41803 18.3913L5.44417 18.1641ZM7.95511 19.2501V20.2501H8.70681L8.91572 19.528L7.95511 19.2501ZM9.91664 14.4167C10.8176 14.4167 11.4742 14.7894 11.9932 15.3579L13.4702 14.0094C12.6405 13.1006 11.4734 12.4167 9.91664 12.4167V14.4167ZM6.41803 18.3913C6.60231 17.6012 6.94356 16.5611 7.53185 15.7401C8.10025 14.9468 8.84709 14.4167 9.91664 14.4167V12.4167C8.02877 12.4167 6.73617 13.4167 5.90609 14.5752C5.0959 15.706 4.67962 17.0396 4.47031 17.937L6.41803 18.3913ZM6.35496 18.2501C6.34999 18.2501 6.36694 18.2494 6.38737 18.2733C6.39777 18.2855 6.40909 18.3044 6.41554 18.3297C6.42243 18.3566 6.42079 18.3794 6.41803 18.3913L4.47031 17.937C4.17207 19.2156 5.19884 20.2501 6.35496 20.2501V18.2501ZM7.95511 18.2501H6.35496V20.2501H7.95511V18.2501ZM8.91572 19.528C9.38767 17.8967 10.4406 16.0781 12.8956 15.6701L12.5678 13.6972C9.01394 14.2878 7.56459 17.0017 6.9945 18.9722L8.91572 19.528Z" fill="#5F6368"/>
</svg>
