<svg width="140" height="155" viewBox="0 0 140 155" fill="none" xmlns="http://www.w3.org/2000/svg">
<rect y="76" width="140" height="59" rx="5" fill="#FA9C10"/>
<path d="M37.4602 121V92.2H46.7802C47.0068 92.2 47.4735 92.2067 48.1802 92.22C48.8868 92.2333 49.5668 92.28 50.2202 92.36C52.5402 92.64 54.5068 93.4467 56.1202 94.78C57.7335 96.1133 58.9602 97.8067 59.8002 99.86C60.6402 101.913 61.0602 104.16 61.0602 106.6C61.0602 109.04 60.6402 111.287 59.8002 113.34C58.9602 115.393 57.7335 117.087 56.1202 118.42C54.5068 119.753 52.5402 120.56 50.2202 120.84C49.5668 120.92 48.8868 120.967 48.1802 120.98C47.4735 120.993 47.0068 121 46.7802 121H37.4602ZM42.9802 115.88H46.7802C47.1402 115.88 47.6268 115.873 48.2402 115.86C48.8535 115.833 49.4068 115.773 49.9002 115.68C51.1535 115.427 52.1735 114.84 52.9602 113.92C53.7602 113 54.3468 111.893 54.7202 110.6C55.1068 109.307 55.3002 107.973 55.3002 106.6C55.3002 105.16 55.1002 103.793 54.7002 102.5C54.3135 101.207 53.7202 100.113 52.9202 99.22C52.1202 98.3267 51.1135 97.76 49.9002 97.52C49.4068 97.4133 48.8535 97.3533 48.2402 97.34C47.6268 97.3267 47.1402 97.32 46.7802 97.32H42.9802V115.88ZM66.2586 121V92.2H71.6986V115.92H84.0986V121H66.2586ZM87.8992 121V92.2H93.3392V115.92H105.739V121H87.8992Z" fill="white"/>
<rect x="11.5" y="2.5" width="118" height="150" stroke="#FA9C10" stroke-width="5" stroke-linejoin="round"/>
<path d="M29 21H112" stroke="#FA9C10" stroke-width="6" stroke-linecap="round"/>
<path d="M29 59H112" stroke="#FA9C10" stroke-width="6" stroke-linecap="round"/>
<path d="M29 40H112" stroke="#FA9C10" stroke-width="6" stroke-linecap="round"/>
</svg>
