<svg width="34" height="33" viewBox="0 0 34 33" fill="none" xmlns="http://www.w3.org/2000/svg">
<rect width="34" height="33" rx="5" fill="#F7BB26"/>
<path d="M8.10781 21V20.802L12.3678 13.716H8.40781V12.36H14.8698V12.564L10.6338 19.638H14.7678V21H8.10781ZM16.4248 21V12.36H17.8708V21H16.4248ZM19.6681 21V12.36H23.2381C23.3221 12.36 23.4301 12.364 23.5621 12.372C23.6941 12.376 23.8161 12.388 23.9281 12.408C24.4281 12.484 24.8401 12.65 25.1641 12.906C25.4921 13.162 25.7341 13.486 25.8901 13.878C26.0501 14.266 26.1301 14.698 26.1301 15.174C26.1301 15.646 26.0501 16.078 25.8901 16.47C25.7301 16.858 25.4861 17.18 25.1581 17.436C24.8341 17.692 24.4241 17.858 23.9281 17.934C23.8161 17.95 23.6921 17.962 23.5561 17.97C23.4241 17.978 23.3181 17.982 23.2381 17.982H21.1141V21H19.6681ZM21.1141 16.632H23.1781C23.2581 16.632 23.3481 16.628 23.4481 16.62C23.5481 16.612 23.6401 16.596 23.7241 16.572C23.9641 16.512 24.1521 16.406 24.2881 16.254C24.4281 16.102 24.5261 15.93 24.5821 15.738C24.6421 15.546 24.6721 15.358 24.6721 15.174C24.6721 14.99 24.6421 14.802 24.5821 14.61C24.5261 14.414 24.4281 14.24 24.2881 14.088C24.1521 13.936 23.9641 13.83 23.7241 13.77C23.6401 13.746 23.5481 13.732 23.4481 13.728C23.3481 13.72 23.2581 13.716 23.1781 13.716H21.1141V16.632Z" fill="white"/>
</svg>
