<svg width="24" height="23" viewBox="0 0 24 23" fill="none" xmlns="http://www.w3.org/2000/svg">
<path d="M5 10.8084C5 9.45062 5 8.77174 5.27446 8.175C5.54892 7.57826 6.06437 7.13645 7.09525 6.25284L8.09525 5.39569C9.95857 3.79856 10.8902 3 12 3C13.1098 3 14.0414 3.79856 15.9047 5.39569L16.9047 6.25284C17.9356 7.13645 18.4511 7.57826 18.7255 8.175C19 8.77174 19 9.45062 19 10.8084V15.0488C19 16.9344 19 17.8772 18.4142 18.463C17.8284 19.0488 16.8856 19.0488 15 19.0488H9C7.11438 19.0488 6.17157 19.0488 5.58579 18.463C5 17.8772 5 16.9344 5 15.0488V10.8084Z" stroke="#5F6368" stroke-width="2"/>
<path d="M14.5 18.2927V13.7805C14.5 13.2282 14.0523 12.7805 13.5 12.7805H10.5C9.94772 12.7805 9.5 13.2282 9.5 13.7805V18.2927" stroke="#5F6368" stroke-width="2" stroke-linecap="round" stroke-linejoin="round"/>
</svg>
