<svg width="25" height="10" viewBox="0 0 25 10" fill="none" xmlns="http://www.w3.org/2000/svg">
<path d="M0.306797 9V0.36H3.8768C3.9608 0.36 4.0688 0.364 4.2008 0.372C4.3328 0.376 4.4548 0.388 4.5668 0.408C5.0668 0.483999 5.4788 0.649999 5.8028 0.905999C6.1308 1.162 6.3728 1.486 6.5288 1.878C6.6888 2.266 6.7688 2.698 6.7688 3.174C6.7688 3.646 6.6888 4.078 6.5288 4.47C6.3688 4.858 6.1248 5.18 5.7968 5.436C5.4728 5.692 5.0628 5.858 4.5668 5.934C4.4548 5.95 4.3308 5.962 4.1948 5.97C4.0628 5.978 3.9568 5.982 3.8768 5.982H1.7528V9H0.306797ZM1.7528 4.632H3.8168C3.8968 4.632 3.9868 4.628 4.0868 4.62C4.1868 4.612 4.2788 4.596 4.3628 4.572C4.6028 4.512 4.7908 4.406 4.9268 4.254C5.0668 4.102 5.1648 3.93 5.2208 3.738C5.2808 3.546 5.3108 3.358 5.3108 3.174C5.3108 2.99 5.2808 2.802 5.2208 2.61C5.1648 2.414 5.0668 2.24 4.9268 2.088C4.7908 1.936 4.6028 1.83 4.3628 1.77C4.2788 1.746 4.1868 1.732 4.0868 1.728C3.9868 1.72 3.8968 1.716 3.8168 1.716H1.7528V4.632ZM7.97086 9V0.36H9.43486L13.4429 6.45V0.36H14.9069V9H13.4429L9.43486 2.91V9H7.97086ZM20.1481 9.18C19.5881 9.18 19.0621 9.082 18.5701 8.886C18.0821 8.686 17.6521 8.394 17.2801 8.01C16.9121 7.626 16.6241 7.156 16.4161 6.6C16.2081 6.04 16.1041 5.4 16.1041 4.68C16.1041 3.736 16.2801 2.93 16.6321 2.262C16.9841 1.59 17.4661 1.076 18.0781 0.719999C18.6901 0.36 19.3801 0.18 20.1481 0.18C21.2121 0.18 22.0541 0.428 22.6741 0.924C23.2981 1.416 23.7201 2.108 23.9401 3L22.4641 3.234C22.3001 2.722 22.0321 2.314 21.6601 2.01C21.2881 1.702 20.8141 1.548 20.2381 1.548C19.6581 1.54 19.1761 1.666 18.7921 1.926C18.4081 2.186 18.1181 2.552 17.9221 3.024C17.7301 3.496 17.6341 4.048 17.6341 4.68C17.6341 5.312 17.7301 5.862 17.9221 6.33C18.1141 6.794 18.4021 7.156 18.7861 7.416C19.1741 7.676 19.6581 7.81 20.2381 7.818C20.6741 7.822 21.0561 7.744 21.3841 7.584C21.7121 7.42 21.9801 7.174 22.1881 6.846C22.3961 6.514 22.5361 6.1 22.6081 5.604H21.0841V4.47H24.1441C24.1521 4.534 24.1581 4.628 24.1621 4.752C24.1661 4.876 24.1681 4.95 24.1681 4.974C24.1681 5.79 24.0061 6.516 23.6821 7.152C23.3621 7.784 22.9021 8.28 22.3021 8.64C21.7021 9 20.9841 9.18 20.1481 9.18Z" fill="white"/>
</svg>
