<svg width="22" height="27" viewBox="0 0 22 27" fill="none" xmlns="http://www.w3.org/2000/svg">
<rect x="2.84277" y="6.49438" width="16.06" height="11.9473" rx="5.97363" stroke="#0945B8" stroke-width="2"/>
<path d="M2.46122 12.2565C2.46122 13.3069 2.57457 14.3697 1.65857 14.3697C0.742568 14.3697 0 13.5182 0 12.4678C0 11.4174 0.742568 10.5659 1.65857 10.5659C2.57457 10.5659 2.46122 11.2061 2.46122 12.2565Z" fill="#0945B8"/>
<path d="M19.5388 12.6793C19.5388 11.6289 19.4254 10.5661 20.3414 10.5661C21.2574 10.5661 22 11.4176 22 12.468C22 13.5184 21.2574 14.3699 20.3414 14.3699C19.4254 14.3699 19.5388 13.7297 19.5388 12.6793Z" fill="#0945B8"/>
<path d="M11.0571 6.62602C10.1411 6.62602 9.21423 6.756 9.21423 5.70561C9.21423 4.65522 9.9568 3.80371 10.8728 3.80371C11.7888 3.80371 12.5314 4.65522 12.5314 5.70561C12.5314 6.756 11.9731 6.62602 11.0571 6.62602Z" fill="#0945B8"/>
<ellipse cx="10.8728" cy="1.47925" rx="1.29" ry="1.47925" fill="#0945B8"/>
<ellipse cx="10.8728" cy="1.47925" rx="1.29" ry="1.47925" fill="#0945B8"/>
<ellipse cx="10.8728" cy="1.47925" rx="1.29" ry="1.47925" fill="#0945B8"/>
<rect x="10.3199" y="2.53589" width="1.10571" height="1.69058" fill="#0945B8"/>
<path d="M9.76708 24.7246L10.8728 19.4416L16.806 18.4613L9.76708 24.7246Z" fill="#0945B8"/>
<path d="M9.21423 13.9474C9.21423 14.1694 9.25713 14.3892 9.34048 14.5943C9.42383 14.7994 9.546 14.9858 9.70001 15.1428C9.85403 15.2998 10.0369 15.4243 10.2381 15.5093C10.4393 15.5942 10.655 15.6379 10.8728 15.6379C11.0906 15.6379 11.3063 15.5942 11.5075 15.5093C11.7087 15.4243 11.8916 15.2998 12.0456 15.1428C12.1996 14.9858 12.3218 14.7994 12.4051 14.5943C12.4885 14.3892 12.5314 14.1694 12.5314 13.9474L10.8728 13.9474H9.21423Z" fill="#0945B8"/>
<ellipse cx="7.73987" cy="11.4115" rx="1.10571" ry="1.26793" fill="#0945B8"/>
<ellipse cx="7.73987" cy="11.4115" rx="1.10571" ry="1.26793" fill="#0945B8"/>
<ellipse cx="14.0056" cy="11.4115" rx="1.10571" ry="1.26793" fill="#0945B8"/>
<ellipse cx="14.0056" cy="11.4115" rx="1.10571" ry="1.26793" fill="#0945B8"/>
</svg>
