<svg width="64" height="64" viewBox="0 0 64 64" fill="none" xmlns="http://www.w3.org/2000/svg">
<path d="M8 21.3334H51.2C52.8802 21.3334 53.7202 21.3334 54.362 21.6604C54.9265 21.948 55.3854 22.4069 55.673 22.9714C56 23.6131 56 24.4532 56 26.1334V45.8667C56 47.5469 56 48.3869 55.673 49.0287C55.3854 49.5932 54.9265 50.0521 54.362 50.3397C53.7202 50.6667 52.8802 50.6667 51.2 50.6667H12.8C11.1198 50.6667 10.2798 50.6667 9.63803 50.3397C9.07354 50.0521 8.6146 49.5932 8.32698 49.0287C8 48.3869 8 47.5469 8 45.8667V21.3334Z" fill="#03B5EA"/>
<path d="M8 17.3334C8 15.4478 8 14.5049 8.58579 13.9192C9.17157 13.3334 10.1144 13.3334 12 13.3334H25.0098C25.8273 13.3334 26.2361 13.3334 26.6036 13.4856C26.9711 13.6379 27.2602 13.9269 27.8382 14.5049L34.6667 21.3334H8V17.3334Z" fill="#03B5EA"/>
</svg>
