<svg width="30" height="30" viewBox="0 0 30 30" fill="none" xmlns="http://www.w3.org/2000/svg">
<path d="M3.75 10H21.45C23.1302 10 23.9702 10 24.612 10.327C25.1765 10.6146 25.6354 11.0735 25.923 11.638C26.25 12.2798 26.25 13.1198 26.25 14.8V18.95C26.25 20.6302 26.25 21.4702 25.923 22.112C25.6354 22.6765 25.1765 23.1354 24.612 23.423C23.9702 23.75 23.1302 23.75 21.45 23.75H8.55C6.86984 23.75 6.02976 23.75 5.38803 23.423C4.82354 23.1354 4.3646 22.6765 4.07698 22.112C3.75 21.4702 3.75 20.6302 3.75 18.95V10Z" fill="#03B5EA"/>
<path d="M3.75 10C3.75 8.35626 3.75 7.53439 4.20398 6.98121C4.28709 6.87995 4.37995 6.78709 4.48121 6.70398C5.03439 6.25 5.85626 6.25 7.5 6.25H10.8431C11.6606 6.25 12.0694 6.25 12.4369 6.40224C12.8045 6.55448 13.0935 6.84351 13.6716 7.42157L16.25 10H3.75Z" fill="#03B5EA"/>
</svg>
