<svg width="34" height="33" viewBox="0 0 34 33" fill="none" xmlns="http://www.w3.org/2000/svg">
<rect width="34" height="33" rx="5" fill="#F0615C"/>
<path d="M6.66617 21V12.36H10.2362C10.3202 12.36 10.4282 12.364 10.5602 12.372C10.6922 12.376 10.8142 12.388 10.9262 12.408C11.4262 12.484 11.8382 12.65 12.1622 12.906C12.4902 13.162 12.7322 13.486 12.8882 13.878C13.0482 14.266 13.1282 14.698 13.1282 15.174C13.1282 15.646 13.0482 16.078 12.8882 16.47C12.7282 16.858 12.4842 17.18 12.1562 17.436C11.8322 17.692 11.4222 17.858 10.9262 17.934C10.8142 17.95 10.6902 17.962 10.5542 17.97C10.4222 17.978 10.3162 17.982 10.2362 17.982H8.11217V21H6.66617ZM8.11217 16.632H10.1762C10.2562 16.632 10.3462 16.628 10.4462 16.62C10.5462 16.612 10.6382 16.596 10.7222 16.572C10.9622 16.512 11.1502 16.406 11.2862 16.254C11.4262 16.102 11.5242 15.93 11.5802 15.738C11.6402 15.546 11.6702 15.358 11.6702 15.174C11.6702 14.99 11.6402 14.802 11.5802 14.61C11.5242 14.414 11.4262 14.24 11.2862 14.088C11.1502 13.936 10.9622 13.83 10.7222 13.77C10.6382 13.746 10.5462 13.732 10.4462 13.728C10.3462 13.72 10.2562 13.716 10.1762 13.716H8.11217V16.632ZM14.3302 21V12.36H17.0842C17.1562 12.36 17.2982 12.362 17.5102 12.366C17.7262 12.37 17.9342 12.384 18.1342 12.408C18.8182 12.496 19.3962 12.74 19.8682 13.14C20.3442 13.536 20.7042 14.042 20.9482 14.658C21.1922 15.274 21.3142 15.948 21.3142 16.68C21.3142 17.412 21.1922 18.086 20.9482 18.702C20.7042 19.318 20.3442 19.826 19.8682 20.226C19.3962 20.622 18.8182 20.864 18.1342 20.952C17.9382 20.976 17.7322 20.99 17.5162 20.994C17.3002 20.998 17.1562 21 17.0842 21H14.3302ZM15.8002 19.638H17.0842C17.2042 19.638 17.3562 19.634 17.5402 19.626C17.7282 19.618 17.8942 19.6 18.0382 19.572C18.4462 19.496 18.7782 19.314 19.0342 19.026C19.2902 18.738 19.4782 18.388 19.5982 17.976C19.7222 17.564 19.7842 17.132 19.7842 16.68C19.7842 16.212 19.7222 15.772 19.5982 15.36C19.4742 14.948 19.2822 14.602 19.0222 14.322C18.7662 14.042 18.4382 13.864 18.0382 13.788C17.8942 13.756 17.7282 13.738 17.5402 13.734C17.3562 13.726 17.2042 13.722 17.0842 13.722H15.8002V19.638ZM22.7326 21V12.36H27.9346V13.806H24.1786V15.96H27.2146V17.4H24.1786V21H22.7326Z" fill="white"/>
</svg>
