<svg width="140" height="155" viewBox="0 0 140 155" fill="none" xmlns="http://www.w3.org/2000/svg">
<rect y="76" width="140" height="59" rx="5" fill="#118C0E"/>
<path d="M44.0389 121.6C41.1589 121.6 38.6722 120.973 36.5789 119.72C34.4989 118.467 32.8922 116.713 31.7589 114.46C30.6389 112.207 30.0789 109.587 30.0789 106.6C30.0789 103.613 30.6389 100.993 31.7589 98.74C32.8922 96.4867 34.4989 94.7333 36.5789 93.48C38.6722 92.2267 41.1589 91.6 44.0389 91.6C47.3456 91.6 50.1189 92.42 52.3589 94.06C54.6122 95.7 56.1989 97.92 57.1189 100.72L51.6389 102.24C51.1056 100.493 50.2056 99.14 48.9389 98.18C47.6722 97.2067 46.0389 96.72 44.0389 96.72C42.2122 96.72 40.6856 97.1267 39.4589 97.94C38.2456 98.7533 37.3322 99.9 36.7189 101.38C36.1056 102.86 35.7989 104.6 35.7989 106.6C35.7989 108.6 36.1056 110.34 36.7189 111.82C37.3322 113.3 38.2456 114.447 39.4589 115.26C40.6856 116.073 42.2122 116.48 44.0389 116.48C46.0389 116.48 47.6722 115.993 48.9389 115.02C50.2056 114.047 51.1056 112.693 51.6389 110.96L57.1189 112.48C56.1989 115.28 54.6122 117.5 52.3589 119.14C50.1189 120.78 47.3456 121.6 44.0389 121.6ZM73.6136 121.6C71.4803 121.6 69.5536 121.227 67.8336 120.48C66.1269 119.72 64.7203 118.64 63.6136 117.24C62.5203 115.827 61.8269 114.147 61.5336 112.2L67.2136 111.36C67.6136 113.013 68.4403 114.287 69.6936 115.18C70.9469 116.073 72.3736 116.52 73.9736 116.52C74.8669 116.52 75.7336 116.38 76.5736 116.1C77.4136 115.82 78.1003 115.407 78.6336 114.86C79.1803 114.313 79.4536 113.64 79.4536 112.84C79.4536 112.547 79.4069 112.267 79.3136 112C79.2336 111.72 79.0936 111.46 78.8936 111.22C78.6936 110.98 78.4069 110.753 78.0336 110.54C77.6736 110.327 77.2136 110.133 76.6536 109.96L69.1736 107.76C68.6136 107.6 67.9603 107.373 67.2136 107.08C66.4803 106.787 65.7669 106.367 65.0736 105.82C64.3803 105.273 63.8003 104.553 63.3336 103.66C62.8803 102.753 62.6536 101.613 62.6536 100.24C62.6536 98.3067 63.1403 96.7 64.1136 95.42C65.0869 94.14 66.3869 93.1867 68.0136 92.56C69.6403 91.9333 71.4403 91.6267 73.4136 91.64C75.4003 91.6667 77.1736 92.0067 78.7336 92.66C80.2936 93.3133 81.6003 94.2667 82.6536 95.52C83.7069 96.76 84.4669 98.28 84.9336 100.08L79.0536 101.08C78.8403 100.147 78.4469 99.36 77.8736 98.72C77.3003 98.08 76.6136 97.5933 75.8136 97.26C75.0269 96.9267 74.2003 96.7467 73.3336 96.72C72.4803 96.6933 71.6736 96.8133 70.9136 97.08C70.1669 97.3333 69.5536 97.7067 69.0736 98.2C68.6069 98.6933 68.3736 99.28 68.3736 99.96C68.3736 100.587 68.5669 101.1 68.9536 101.5C69.3403 101.887 69.8269 102.2 70.4136 102.44C71.0003 102.68 71.6003 102.88 72.2136 103.04L77.2136 104.4C77.9603 104.6 78.7869 104.867 79.6936 105.2C80.6003 105.52 81.4669 105.973 82.2936 106.56C83.1336 107.133 83.8203 107.893 84.3536 108.84C84.9003 109.787 85.1736 110.987 85.1736 112.44C85.1736 113.987 84.8469 115.34 84.1936 116.5C83.5536 117.647 82.6869 118.6 81.5936 119.36C80.5003 120.107 79.2603 120.667 77.8736 121.04C76.5003 121.413 75.0803 121.6 73.6136 121.6ZM94.9883 121L86.1883 92.2H91.7883L98.9883 115.88L106.308 92.2H111.908L103.108 121H94.9883Z" fill="white"/>
<rect x="11.5" y="2.5" width="118" height="150" stroke="#118C0E" stroke-width="5" stroke-linejoin="round"/>
<path d="M29 21H112" stroke="#118C0E" stroke-width="6" stroke-linecap="round"/>
<path d="M29 59H112" stroke="#118C0E" stroke-width="6" stroke-linecap="round"/>
<path d="M29 40H112" stroke="#118C0E" stroke-width="6" stroke-linecap="round"/>
</svg>
