<svg width="34" height="33" viewBox="0 0 34 33" fill="none" xmlns="http://www.w3.org/2000/svg">
<rect width="34" height="33" rx="5" fill="#40A04D"/>
<path d="M8.33558 21.18C7.67558 21.18 7.12558 21.008 6.68558 20.664C6.24958 20.32 5.94358 19.856 5.76758 19.272L7.19558 18.93C7.23958 19.174 7.36758 19.384 7.57958 19.56C7.79158 19.736 8.02558 19.824 8.28158 19.824C8.44958 19.824 8.62758 19.78 8.81558 19.692C9.00358 19.6 9.14358 19.454 9.23558 19.254C9.29158 19.126 9.32358 18.974 9.33158 18.798C9.34358 18.618 9.34958 18.41 9.34958 18.174V12.36H10.8136V18.174C10.8136 18.442 10.8116 18.678 10.8076 18.882C10.8076 19.082 10.7876 19.272 10.7476 19.452C10.7116 19.628 10.6376 19.81 10.5256 19.998C10.2896 20.406 9.98158 20.706 9.60158 20.898C9.22158 21.086 8.79958 21.18 8.33558 21.18ZM12.6193 21V12.36H16.1893C16.2733 12.36 16.3813 12.364 16.5133 12.372C16.6453 12.376 16.7673 12.388 16.8793 12.408C17.3793 12.484 17.7913 12.65 18.1153 12.906C18.4433 13.162 18.6853 13.486 18.8413 13.878C19.0013 14.266 19.0813 14.698 19.0813 15.174C19.0813 15.646 19.0013 16.078 18.8413 16.47C18.6813 16.858 18.4373 17.18 18.1093 17.436C17.7853 17.692 17.3753 17.858 16.8793 17.934C16.7673 17.95 16.6433 17.962 16.5073 17.97C16.3753 17.978 16.2693 17.982 16.1893 17.982H14.0653V21H12.6193ZM14.0653 16.632H16.1293C16.2093 16.632 16.2993 16.628 16.3993 16.62C16.4993 16.612 16.5913 16.596 16.6753 16.572C16.9153 16.512 17.1033 16.406 17.2393 16.254C17.3793 16.102 17.4773 15.93 17.5333 15.738C17.5933 15.546 17.6233 15.358 17.6233 15.174C17.6233 14.99 17.5933 14.802 17.5333 14.61C17.4773 14.414 17.3793 14.24 17.2393 14.088C17.1033 13.936 16.9153 13.83 16.6753 13.77C16.5913 13.746 16.4993 13.732 16.3993 13.728C16.2993 13.72 16.2093 13.716 16.1293 13.716H14.0653V16.632ZM23.8474 21.18C23.2874 21.18 22.7614 21.082 22.2694 20.886C21.7814 20.686 21.3514 20.394 20.9794 20.01C20.6114 19.626 20.3234 19.156 20.1154 18.6C19.9074 18.04 19.8034 17.4 19.8034 16.68C19.8034 15.736 19.9794 14.93 20.3314 14.262C20.6834 13.59 21.1654 13.076 21.7774 12.72C22.3894 12.36 23.0794 12.18 23.8474 12.18C24.9114 12.18 25.7534 12.428 26.3734 12.924C26.9974 13.416 27.4194 14.108 27.6394 15L26.1634 15.234C25.9994 14.722 25.7314 14.314 25.3594 14.01C24.9874 13.702 24.5134 13.548 23.9374 13.548C23.3574 13.54 22.8754 13.666 22.4914 13.926C22.1074 14.186 21.8174 14.552 21.6214 15.024C21.4294 15.496 21.3334 16.048 21.3334 16.68C21.3334 17.312 21.4294 17.862 21.6214 18.33C21.8134 18.794 22.1014 19.156 22.4854 19.416C22.8734 19.676 23.3574 19.81 23.9374 19.818C24.3734 19.822 24.7554 19.744 25.0834 19.584C25.4114 19.42 25.6794 19.174 25.8874 18.846C26.0954 18.514 26.2354 18.1 26.3074 17.604H24.7834V16.47H27.8434C27.8514 16.534 27.8574 16.628 27.8614 16.752C27.8654 16.876 27.8674 16.95 27.8674 16.974C27.8674 17.79 27.7054 18.516 27.3814 19.152C27.0614 19.784 26.6014 20.28 26.0014 20.64C25.4014 21 24.6834 21.18 23.8474 21.18Z" fill="white"/>
</svg>
