<svg width="34" height="33" viewBox="0 0 34 33" fill="none" xmlns="http://www.w3.org/2000/svg">
<rect width="34" height="33" rx="5" fill="#C4195A"/>
<path d="M5.3068 21V12.36H8.8768C8.9608 12.36 9.0688 12.364 9.2008 12.372C9.3328 12.376 9.4548 12.388 9.5668 12.408C10.0668 12.484 10.4788 12.65 10.8028 12.906C11.1308 13.162 11.3728 13.486 11.5288 13.878C11.6888 14.266 11.7688 14.698 11.7688 15.174C11.7688 15.646 11.6888 16.078 11.5288 16.47C11.3688 16.858 11.1248 17.18 10.7968 17.436C10.4728 17.692 10.0628 17.858 9.5668 17.934C9.4548 17.95 9.3308 17.962 9.1948 17.97C9.0628 17.978 8.9568 17.982 8.8768 17.982H6.7528V21H5.3068ZM6.7528 16.632H8.8168C8.8968 16.632 8.9868 16.628 9.0868 16.62C9.1868 16.612 9.2788 16.596 9.3628 16.572C9.6028 16.512 9.7908 16.406 9.9268 16.254C10.0668 16.102 10.1648 15.93 10.2208 15.738C10.2808 15.546 10.3108 15.358 10.3108 15.174C10.3108 14.99 10.2808 14.802 10.2208 14.61C10.1648 14.414 10.0668 14.24 9.9268 14.088C9.7908 13.936 9.6028 13.83 9.3628 13.77C9.2788 13.746 9.1868 13.732 9.0868 13.728C8.9868 13.72 8.8968 13.716 8.8168 13.716H6.7528V16.632ZM12.9709 21V12.36H14.4349L18.4429 18.45V12.36H19.9069V21H18.4429L14.4349 14.91V21H12.9709ZM25.1481 21.18C24.5881 21.18 24.0621 21.082 23.5701 20.886C23.0821 20.686 22.6521 20.394 22.2801 20.01C21.9121 19.626 21.6241 19.156 21.4161 18.6C21.2081 18.04 21.1041 17.4 21.1041 16.68C21.1041 15.736 21.2801 14.93 21.6321 14.262C21.9841 13.59 22.4661 13.076 23.0781 12.72C23.6901 12.36 24.3801 12.18 25.1481 12.18C26.2121 12.18 27.0541 12.428 27.6741 12.924C28.2981 13.416 28.7201 14.108 28.9401 15L27.4641 15.234C27.3001 14.722 27.0321 14.314 26.6601 14.01C26.2881 13.702 25.8141 13.548 25.2381 13.548C24.6581 13.54 24.1761 13.666 23.7921 13.926C23.4081 14.186 23.1181 14.552 22.9221 15.024C22.7301 15.496 22.6341 16.048 22.6341 16.68C22.6341 17.312 22.7301 17.862 22.9221 18.33C23.1141 18.794 23.4021 19.156 23.7861 19.416C24.1741 19.676 24.6581 19.81 25.2381 19.818C25.6741 19.822 26.0561 19.744 26.3841 19.584C26.7121 19.42 26.9801 19.174 27.1881 18.846C27.3961 18.514 27.5361 18.1 27.6081 17.604H26.0841V16.47H29.1441C29.1521 16.534 29.1581 16.628 29.1621 16.752C29.1661 16.876 29.1681 16.95 29.1681 16.974C29.1681 17.79 29.0061 18.516 28.6821 19.152C28.3621 19.784 27.9021 20.28 27.3021 20.64C26.7021 21 25.9841 21.18 25.1481 21.18Z" fill="white"/>
</svg>
