<svg width="34" height="33" viewBox="0 0 34 33" fill="none" xmlns="http://www.w3.org/2000/svg">
<rect width="34" height="33" rx="5" fill="#1B8A96"/>
<path d="M6.46869 21L3.94269 12.36H5.46069L7.18269 18.6L8.89869 12.372L10.4167 12.36L12.1387 18.6L13.8547 12.36H15.3727L12.8527 21H11.4247L9.65469 14.856L7.89669 21H6.46869ZM16.3517 21V12.36H21.9317V13.716H17.7977V15.846H21.2117V17.202H17.7977V19.644H21.9317V21H16.3517ZM23.3713 21V12.36H26.9413C27.0253 12.36 27.1333 12.364 27.2653 12.372C27.3973 12.376 27.5193 12.388 27.6313 12.408C28.1313 12.484 28.5433 12.65 28.8672 12.906C29.1953 13.162 29.4373 13.486 29.5933 13.878C29.7533 14.266 29.8333 14.698 29.8333 15.174C29.8333 15.646 29.7533 16.078 29.5933 16.47C29.4333 16.858 29.1893 17.18 28.8613 17.436C28.5373 17.692 28.1273 17.858 27.6313 17.934C27.5193 17.95 27.3953 17.962 27.2593 17.97C27.1273 17.978 27.0213 17.982 26.9413 17.982H24.8173V21H23.3713ZM24.8173 16.632H26.8813C26.9613 16.632 27.0513 16.628 27.1513 16.62C27.2513 16.612 27.3433 16.596 27.4273 16.572C27.6673 16.512 27.8553 16.406 27.9913 16.254C28.1313 16.102 28.2293 15.93 28.2853 15.738C28.3453 15.546 28.3753 15.358 28.3753 15.174C28.3753 14.99 28.3453 14.802 28.2853 14.61C28.2293 14.414 28.1313 14.24 27.9913 14.088C27.8553 13.936 27.6673 13.83 27.4273 13.77C27.3433 13.746 27.2513 13.732 27.1513 13.728C27.0513 13.72 26.9613 13.716 26.8813 13.716H24.8173V16.632Z" fill="white"/>
</svg>
